<mxfile host="Electron" modified="2023-10-17T05:53:29.569Z" agent="Mozilla/5.0 (Windows NT 10.0; Win64; x64) AppleWebKit/537.36 (KHTML, like Gecko) draw.io/22.0.2 Chrome/114.0.5735.289 Electron/25.8.4 Safari/537.36" etag="T_Wau2UNF9lcKs24Hu5A" version="22.0.2" type="device">
  <diagram id="bP3Q5kUmKTerZe7tD1WN" name="Page-1">
    <mxGraphModel dx="1050" dy="621" grid="1" gridSize="10" guides="1" tooltips="1" connect="1" arrows="1" fold="1" page="1" pageScale="1" pageWidth="850" pageHeight="1100" math="0" shadow="0">
      <root>
        <mxCell id="0" />
        <mxCell id="1" parent="0" />
        <mxCell id="0ufNDg1saYG2aLfE_8Kg-1" value="" style="rounded=0;whiteSpace=wrap;html=1;" vertex="1" parent="1">
          <mxGeometry x="160" y="40" width="560" height="680" as="geometry" />
        </mxCell>
        <mxCell id="0ufNDg1saYG2aLfE_8Kg-2" value="&lt;font style=&quot;font-size: 20px;&quot;&gt;System&lt;/font&gt;" style="swimlane;html=1;startSize=20;" vertex="1" parent="1">
          <mxGeometry x="440" y="40" width="280" height="680" as="geometry" />
        </mxCell>
        <mxCell id="0ufNDg1saYG2aLfE_8Kg-3" value="Display Admin Panel" style="rounded=1;whiteSpace=wrap;html=1;fontSize=22;fillColor=#76608a;fontColor=#ffffff;strokeColor=#432D57;" vertex="1" parent="0ufNDg1saYG2aLfE_8Kg-2">
          <mxGeometry x="55" y="75" width="170" height="60" as="geometry" />
        </mxCell>
        <mxCell id="0ufNDg1saYG2aLfE_8Kg-4" value="Display Added Categories and Products" style="rounded=1;whiteSpace=wrap;html=1;fontSize=22;fillColor=#76608a;fontColor=#ffffff;strokeColor=#432D57;" vertex="1" parent="0ufNDg1saYG2aLfE_8Kg-2">
          <mxGeometry x="34.059999999999995" y="315" width="211.88" height="80" as="geometry" />
        </mxCell>
        <mxCell id="0ufNDg1saYG2aLfE_8Kg-5" value="Display Updated Products" style="rounded=1;whiteSpace=wrap;html=1;fontSize=22;fillColor=#76608a;fontColor=#ffffff;strokeColor=#432D57;" vertex="1" parent="0ufNDg1saYG2aLfE_8Kg-2">
          <mxGeometry x="42.5" y="460" width="195" height="60" as="geometry" />
        </mxCell>
        <mxCell id="0ufNDg1saYG2aLfE_8Kg-6" value="Products Removed" style="rounded=1;whiteSpace=wrap;html=1;fontSize=22;fillColor=#76608a;fontColor=#ffffff;strokeColor=#432D57;" vertex="1" parent="0ufNDg1saYG2aLfE_8Kg-2">
          <mxGeometry x="42.5" y="560" width="200" height="60" as="geometry" />
        </mxCell>
        <mxCell id="0ufNDg1saYG2aLfE_8Kg-7" value="&lt;font style=&quot;font-size: 20px;&quot;&gt;Admin&lt;/font&gt;" style="swimlane;html=1;startSize=20;fontSize=14;" vertex="1" parent="1">
          <mxGeometry x="160" y="40" width="280" height="680" as="geometry" />
        </mxCell>
        <mxCell id="0ufNDg1saYG2aLfE_8Kg-8" value="" style="ellipse;html=1;shape=startState;fillColor=#000000;strokeColor=#ff0000;" vertex="1" parent="0ufNDg1saYG2aLfE_8Kg-7">
          <mxGeometry x="125" y="30" width="30" height="30" as="geometry" />
        </mxCell>
        <mxCell id="0ufNDg1saYG2aLfE_8Kg-9" value="" style="edgeStyle=orthogonalEdgeStyle;html=1;verticalAlign=bottom;endArrow=open;endSize=8;strokeColor=#ff0000;entryX=0.5;entryY=0;entryDx=0;entryDy=0;" edge="1" parent="0ufNDg1saYG2aLfE_8Kg-7" source="0ufNDg1saYG2aLfE_8Kg-8" target="0ufNDg1saYG2aLfE_8Kg-10">
          <mxGeometry relative="1" as="geometry">
            <mxPoint x="120" y="120" as="targetPoint" />
          </mxGeometry>
        </mxCell>
        <mxCell id="0ufNDg1saYG2aLfE_8Kg-10" value="Login" style="rounded=1;whiteSpace=wrap;html=1;fontSize=20;fillColor=#76608a;fontColor=#ffffff;strokeColor=#432D57;" vertex="1" parent="0ufNDg1saYG2aLfE_8Kg-7">
          <mxGeometry x="65" y="80" width="150" height="50" as="geometry" />
        </mxCell>
        <mxCell id="0ufNDg1saYG2aLfE_8Kg-11" value="View All Products" style="rounded=1;whiteSpace=wrap;html=1;fontSize=20;fillColor=#76608a;fontColor=#ffffff;strokeColor=#432D57;" vertex="1" parent="0ufNDg1saYG2aLfE_8Kg-7">
          <mxGeometry x="65" y="150" width="150" height="60" as="geometry" />
        </mxCell>
        <mxCell id="0ufNDg1saYG2aLfE_8Kg-12" value="Manage Products" style="rounded=1;whiteSpace=wrap;html=1;fontSize=20;fillColor=#76608a;fontColor=#ffffff;strokeColor=#432D57;" vertex="1" parent="0ufNDg1saYG2aLfE_8Kg-7">
          <mxGeometry x="62.5" y="240" width="155" height="60" as="geometry" />
        </mxCell>
        <mxCell id="0ufNDg1saYG2aLfE_8Kg-13" value="" style="endArrow=classic;html=1;exitX=0.5;exitY=1;exitDx=0;exitDy=0;entryX=0.5;entryY=0;entryDx=0;entryDy=0;" edge="1" parent="0ufNDg1saYG2aLfE_8Kg-7" source="0ufNDg1saYG2aLfE_8Kg-11" target="0ufNDg1saYG2aLfE_8Kg-12">
          <mxGeometry width="50" height="50" relative="1" as="geometry">
            <mxPoint x="170" y="330" as="sourcePoint" />
            <mxPoint x="220" y="280" as="targetPoint" />
          </mxGeometry>
        </mxCell>
        <mxCell id="0ufNDg1saYG2aLfE_8Kg-14" value="Add Categories and Products" style="rounded=1;whiteSpace=wrap;html=1;fontSize=20;fillColor=#76608a;fontColor=#ffffff;strokeColor=#432D57;" vertex="1" parent="0ufNDg1saYG2aLfE_8Kg-7">
          <mxGeometry x="62.5" y="330" width="155" height="50" as="geometry" />
        </mxCell>
        <mxCell id="0ufNDg1saYG2aLfE_8Kg-15" value="" style="endArrow=classic;html=1;exitX=0.5;exitY=1;exitDx=0;exitDy=0;entryX=0.5;entryY=0;entryDx=0;entryDy=0;" edge="1" parent="0ufNDg1saYG2aLfE_8Kg-7" source="0ufNDg1saYG2aLfE_8Kg-12" target="0ufNDg1saYG2aLfE_8Kg-14">
          <mxGeometry width="50" height="50" relative="1" as="geometry">
            <mxPoint x="170" y="320" as="sourcePoint" />
            <mxPoint x="220" y="270" as="targetPoint" />
          </mxGeometry>
        </mxCell>
        <mxCell id="0ufNDg1saYG2aLfE_8Kg-16" value="Edit/Update Products" style="rounded=1;whiteSpace=wrap;html=1;fontSize=20;fillColor=#76608a;fontColor=#ffffff;strokeColor=#432D57;" vertex="1" parent="0ufNDg1saYG2aLfE_8Kg-7">
          <mxGeometry x="60" y="400" width="160" height="50" as="geometry" />
        </mxCell>
        <mxCell id="0ufNDg1saYG2aLfE_8Kg-17" value="Remove/Delete Products" style="rounded=1;whiteSpace=wrap;html=1;fontSize=20;fillColor=#76608a;fontColor=#ffffff;strokeColor=#432D57;" vertex="1" parent="0ufNDg1saYG2aLfE_8Kg-7">
          <mxGeometry x="60" y="470" width="160" height="50" as="geometry" />
        </mxCell>
        <mxCell id="0ufNDg1saYG2aLfE_8Kg-19" value="" style="ellipse;html=1;shape=endState;fillColor=#000000;strokeColor=#ff0000;" vertex="1" parent="0ufNDg1saYG2aLfE_8Kg-7">
          <mxGeometry x="125" y="645" width="30" height="30" as="geometry" />
        </mxCell>
        <mxCell id="0ufNDg1saYG2aLfE_8Kg-21" style="edgeStyle=orthogonalEdgeStyle;rounded=0;orthogonalLoop=1;jettySize=auto;html=1;entryX=0;entryY=0.5;entryDx=0;entryDy=0;" edge="1" parent="1" source="0ufNDg1saYG2aLfE_8Kg-10" target="0ufNDg1saYG2aLfE_8Kg-3">
          <mxGeometry relative="1" as="geometry" />
        </mxCell>
        <mxCell id="0ufNDg1saYG2aLfE_8Kg-22" style="edgeStyle=orthogonalEdgeStyle;rounded=0;orthogonalLoop=1;jettySize=auto;html=1;entryX=1;entryY=0.5;entryDx=0;entryDy=0;" edge="1" parent="1" source="0ufNDg1saYG2aLfE_8Kg-3" target="0ufNDg1saYG2aLfE_8Kg-11">
          <mxGeometry relative="1" as="geometry">
            <Array as="points">
              <mxPoint x="580" y="220" />
            </Array>
          </mxGeometry>
        </mxCell>
        <mxCell id="0ufNDg1saYG2aLfE_8Kg-23" style="edgeStyle=orthogonalEdgeStyle;rounded=0;orthogonalLoop=1;jettySize=auto;html=1;entryX=0;entryY=0.5;entryDx=0;entryDy=0;" edge="1" parent="1" source="0ufNDg1saYG2aLfE_8Kg-14" target="0ufNDg1saYG2aLfE_8Kg-4">
          <mxGeometry relative="1" as="geometry" />
        </mxCell>
        <mxCell id="0ufNDg1saYG2aLfE_8Kg-24" style="edgeStyle=orthogonalEdgeStyle;rounded=0;orthogonalLoop=1;jettySize=auto;html=1;entryX=1;entryY=0.5;entryDx=0;entryDy=0;" edge="1" parent="1" source="0ufNDg1saYG2aLfE_8Kg-4" target="0ufNDg1saYG2aLfE_8Kg-16">
          <mxGeometry relative="1" as="geometry">
            <Array as="points">
              <mxPoint x="580" y="465" />
            </Array>
          </mxGeometry>
        </mxCell>
        <mxCell id="0ufNDg1saYG2aLfE_8Kg-26" value="" style="endArrow=classic;html=1;rounded=0;exitX=0.5;exitY=1;exitDx=0;exitDy=0;entryX=0;entryY=0.5;entryDx=0;entryDy=0;" edge="1" parent="1" source="0ufNDg1saYG2aLfE_8Kg-16" target="0ufNDg1saYG2aLfE_8Kg-5">
          <mxGeometry width="50" height="50" relative="1" as="geometry">
            <mxPoint x="400" y="530" as="sourcePoint" />
            <mxPoint x="450" y="480" as="targetPoint" />
            <Array as="points">
              <mxPoint x="410" y="500" />
            </Array>
          </mxGeometry>
        </mxCell>
        <mxCell id="0ufNDg1saYG2aLfE_8Kg-28" value="" style="endArrow=classic;html=1;rounded=0;exitX=0;exitY=0.75;exitDx=0;exitDy=0;entryX=1;entryY=0.5;entryDx=0;entryDy=0;" edge="1" parent="1" source="0ufNDg1saYG2aLfE_8Kg-5" target="0ufNDg1saYG2aLfE_8Kg-17">
          <mxGeometry width="50" height="50" relative="1" as="geometry">
            <mxPoint x="400" y="530" as="sourcePoint" />
            <mxPoint x="450" y="480" as="targetPoint" />
          </mxGeometry>
        </mxCell>
        <mxCell id="0ufNDg1saYG2aLfE_8Kg-29" style="edgeStyle=orthogonalEdgeStyle;rounded=0;orthogonalLoop=1;jettySize=auto;html=1;entryX=0;entryY=0.5;entryDx=0;entryDy=0;" edge="1" parent="1" source="0ufNDg1saYG2aLfE_8Kg-17" target="0ufNDg1saYG2aLfE_8Kg-6">
          <mxGeometry relative="1" as="geometry">
            <Array as="points">
              <mxPoint x="300" y="590" />
              <mxPoint x="460" y="590" />
              <mxPoint x="460" y="630" />
            </Array>
          </mxGeometry>
        </mxCell>
        <mxCell id="0ufNDg1saYG2aLfE_8Kg-30" style="edgeStyle=orthogonalEdgeStyle;rounded=0;orthogonalLoop=1;jettySize=auto;html=1;entryX=0.5;entryY=0;entryDx=0;entryDy=0;" edge="1" parent="1" source="0ufNDg1saYG2aLfE_8Kg-6" target="0ufNDg1saYG2aLfE_8Kg-19">
          <mxGeometry relative="1" as="geometry">
            <Array as="points">
              <mxPoint x="583" y="670" />
            </Array>
          </mxGeometry>
        </mxCell>
      </root>
    </mxGraphModel>
  </diagram>
</mxfile>
